<svg width="80" height="32" viewBox="0 0 80 32" fill="none" xmlns="http://www.w3.org/2000/svg">
<g id="belkins-logo-light-32">
<g id="group">
<path id="Vector" d="M2.03304 22.2073V22.7891C2.03552 22.9226 2.00998 23.0551 1.95806 23.1781C1.90615 23.3011 1.82902 23.4117 1.73167 23.503C1.63598 23.5973 1.52247 23.6716 1.39778 23.7215C1.27308 23.7714 1.1397 23.7959 1.00544 23.7936C0.872927 23.7953 0.741404 23.7705 0.618633 23.7206C0.495861 23.6706 0.38433 23.5965 0.290624 23.5027C0.196918 23.4089 0.122935 23.2972 0.0730465 23.1743C0.0231577 23.0514 -0.00162631 22.9197 0.000156354 22.787V8.2756C-0.002207 8.14116 0.0222431 8.0076 0.0720757 7.88275C0.121908 7.75789 0.196121 7.64424 0.290368 7.54846C0.381751 7.45075 0.492642 7.37339 0.615838 7.32141C0.739033 7.26942 0.871774 7.24397 1.00544 7.2467C1.14167 7.24192 1.27743 7.26527 1.40426 7.31528C1.5311 7.3653 1.64629 7.44092 1.74268 7.53743C1.83908 7.63394 1.9146 7.74928 1.96455 7.87627C2.0145 8.00327 2.03782 8.1392 2.03304 8.2756V13.7554C3.11994 12.6224 4.39335 12.0557 5.85325 12.0552C6.775 12.0547 7.68055 12.2978 8.47842 12.76C9.30487 13.2299 9.97506 13.9158 10.489 14.8178C11.0029 15.7198 11.2587 16.7748 11.2564 17.9827C11.2564 19.1907 11.0006 20.2456 10.489 21.1476C9.97739 22.0496 9.3072 22.7346 8.47842 23.2026C7.68113 23.6643 6.77637 23.9074 5.85534 23.9074C4.39404 23.9074 3.11994 23.3407 2.03304 22.2073ZM8.22099 20.9548C8.89118 20.254 9.22627 19.2624 9.22627 17.9799C9.22627 16.6975 8.89118 15.7058 8.22099 15.005C7.55081 14.3065 6.66459 13.9561 5.56234 13.9537C4.89098 13.9505 4.22853 14.1076 3.62991 14.412C3.02745 14.7171 2.48597 15.1302 2.03234 15.6308V20.3283C2.48601 20.8292 3.02776 21.2424 3.63061 21.5472C4.22909 21.8519 4.89159 22.0093 5.56303 22.0061C6.66482 22.0061 7.55104 21.6557 8.22169 20.9548H8.22099Z" fill="#292929"/>
<path id="Vector_2" d="M15.23 22.3956C14.2096 21.3594 13.6996 19.9017 13.7001 18.0222C13.6896 17.0158 13.8874 16.0181 14.2812 15.092C14.6565 14.2119 15.277 13.4587 16.0686 12.9225C16.8727 12.3711 17.8631 12.0952 19.0397 12.0947C20.142 12.0947 21.0954 12.3508 21.9 12.8631C22.6915 13.3632 23.3264 14.0764 23.732 14.9209C24.1537 15.796 24.3685 16.7566 24.3598 17.7282C24.3632 17.8601 24.3402 17.9913 24.2923 18.1143C24.2444 18.2372 24.1725 18.3493 24.0808 18.4441C23.8948 18.6378 23.6452 18.7347 23.3322 18.7347H15.7546C15.8737 19.7787 16.2609 20.5913 16.9162 21.1725C17.5715 21.7536 18.4875 22.0444 19.6641 22.0449C20.2168 22.0533 20.7684 21.9933 21.3063 21.8661C21.7813 21.7446 22.2419 21.5722 22.68 21.352C22.805 21.291 22.9427 21.2604 23.0818 21.2626C23.315 21.2598 23.5402 21.3479 23.7097 21.5085C23.7972 21.5875 23.8665 21.6847 23.9127 21.7933C23.959 21.9018 23.9811 22.0191 23.9775 22.1371C23.9775 22.4631 23.7841 22.739 23.3971 22.9648C22.8542 23.2768 22.2768 23.5246 21.6768 23.7032C21.1108 23.8671 20.381 23.949 19.4876 23.949C17.6691 23.95 16.2499 23.4321 15.23 22.3956ZM22.3458 17.0827C22.2993 16.3521 22.1093 15.7407 21.7758 15.2485C21.4687 14.7808 21.0402 14.4058 20.5362 14.1637C20.0701 13.9356 19.5582 13.817 19.0394 13.817C18.5206 13.817 18.0087 13.9356 17.5426 14.1637C17.0406 14.4042 16.6152 14.7798 16.3141 15.2485C15.9886 15.7402 15.8025 16.3516 15.756 17.0827H22.3465H22.3458Z" fill="#292929"/>
<path id="Vector_3" d="M27.0307 23.503C26.9361 23.4099 26.8615 23.2985 26.8116 23.1754C26.7617 23.0524 26.7375 22.9205 26.7405 22.7877V8.2756C26.7381 8.14116 26.7626 8.0076 26.8124 7.88275C26.8622 7.75789 26.9364 7.64424 27.0307 7.54846C27.1221 7.45075 27.233 7.37339 27.3562 7.32141C27.4794 7.26942 27.6121 7.24397 27.7458 7.2467C27.882 7.24192 28.0178 7.26527 28.1446 7.31528C28.2714 7.3653 28.3866 7.44092 28.483 7.53743C28.5794 7.63394 28.6549 7.74928 28.7049 7.87627C28.7548 8.00327 28.7781 8.1392 28.7734 8.2756V22.7891C28.7759 22.9226 28.7503 23.0551 28.6984 23.1781C28.6465 23.3011 28.5693 23.4117 28.472 23.503C28.3763 23.5973 28.2628 23.6716 28.1381 23.7215C28.0134 23.7714 27.88 23.7959 27.7458 23.7936C27.6131 23.7966 27.4812 23.7724 27.3582 23.7224C27.2352 23.6725 27.1237 23.5978 27.0307 23.503Z" fill="#292929"/>
<path id="Vector_4" d="M31.5209 23.5299C31.4263 23.4369 31.3517 23.3254 31.3018 23.2024C31.2519 23.0794 31.2277 22.9474 31.2307 22.8147V8.29765C31.2284 8.16321 31.2528 8.02965 31.3026 7.9048C31.3525 7.77994 31.4267 7.66629 31.5209 7.57051C31.6123 7.4728 31.7232 7.39544 31.8464 7.34346C31.9696 7.29147 32.1023 7.26602 32.236 7.26875C32.5084 7.26931 32.7694 7.37789 32.962 7.57072C33.1546 7.76356 33.2631 8.02494 33.2636 8.29765V17.448L38.5802 12.5271C38.8035 12.3334 39.0269 12.2365 39.2506 12.2365C39.5929 12.2365 39.8425 12.3334 39.9992 12.5271C40.1564 12.7235 40.2394 12.9691 40.2336 13.2207C40.2336 13.4745 40.1069 13.7281 39.8534 13.9814L36.6366 16.8676L40.6829 22.2356C40.8232 22.4058 40.9018 22.6185 40.9061 22.8391C40.912 22.9723 40.8891 23.1052 40.839 23.2288C40.7889 23.3523 40.7128 23.4636 40.6159 23.5551C40.4141 23.7368 40.1497 23.833 39.8785 23.8233C39.723 23.8215 39.5701 23.7833 39.432 23.7115C39.2832 23.6372 39.1532 23.53 39.0518 23.3979L35.2093 18.164L33.2657 19.9312V22.8167C33.2684 22.9505 33.2429 23.0833 33.191 23.2065C33.1391 23.3297 33.0619 23.4406 32.9643 23.532C32.8686 23.6263 32.7551 23.7006 32.6304 23.7505C32.5057 23.8004 32.3724 23.8249 32.2381 23.8226C32.1049 23.8257 31.9725 23.8013 31.8491 23.7509C31.7257 23.7006 31.614 23.6254 31.5209 23.5299Z" fill="#292929"/>
<path id="Vector_5" d="M58.8974 23.4998C58.8028 23.4068 58.7282 23.2953 58.6783 23.1723C58.6284 23.0493 58.6042 22.9173 58.6072 22.7846V13.1885C58.6048 13.0541 58.6293 12.9205 58.6791 12.7957C58.7289 12.6708 58.8032 12.5571 58.8974 12.4614C58.9888 12.3637 59.0997 12.2863 59.2229 12.2343C59.3461 12.1823 59.4788 12.1569 59.6125 12.1596C59.8848 12.1602 60.1459 12.2687 60.3385 12.4616C60.5311 12.6544 60.6395 12.9158 60.6401 13.1885V14.1056C61.1667 13.5111 61.7853 13.005 62.472 12.6067C63.1273 12.2341 63.9017 12.0479 64.7951 12.0479C65.6141 12.0479 66.3253 12.2416 66.9285 12.629C67.5311 13.0164 68.0113 13.5673 68.3133 14.2174C68.6382 14.9097 68.8026 15.6667 68.7939 16.4317V22.7846C68.7966 22.9183 68.7712 23.0511 68.7192 23.1743C68.6673 23.2975 68.5901 23.4084 68.4926 23.4998C68.3969 23.5942 68.2834 23.6684 68.1587 23.7183C68.034 23.7682 67.9006 23.7927 67.7663 23.7904C67.6338 23.7922 67.5023 23.7674 67.3795 23.7174C67.2567 23.6675 67.1452 23.5934 67.0515 23.4996C66.9578 23.4057 66.8838 23.2941 66.8339 23.1711C66.784 23.0482 66.7593 22.9165 66.761 22.7839V16.658C66.761 14.8391 65.9418 13.9294 64.3033 13.9289C63.5939 13.9187 62.8976 14.1211 62.3039 14.5101C61.6698 14.9406 61.108 15.4692 60.6394 16.0761V22.7866C60.6421 22.9204 60.6166 23.0532 60.5647 23.1764C60.5128 23.2996 60.4355 23.4105 60.338 23.5019C60.2423 23.5962 60.1288 23.6705 60.0041 23.7204C59.8794 23.7703 59.746 23.7948 59.6118 23.7925C59.479 23.7952 59.3472 23.7706 59.2243 23.7203C59.1014 23.6699 58.9902 23.5949 58.8974 23.4998Z" fill="#292929"/>
<path id="Vector_6" d="M71.6202 22.9057C71.4994 22.8251 71.4012 22.715 71.3348 22.5859C71.2684 22.4567 71.236 22.3126 71.2407 22.1674C71.2377 21.9339 71.3258 21.7083 71.4862 21.5388C71.5652 21.4511 71.6622 21.3816 71.7706 21.3353C71.8791 21.289 71.9963 21.2669 72.1141 21.2705C72.2531 21.2717 72.3902 21.3022 72.5166 21.3599C72.9785 21.5629 73.4567 21.7264 73.9461 21.8489C74.473 21.9741 75.0133 22.0341 75.5548 22.0277C77.2077 22.0277 78.0342 21.4985 78.0342 20.44C78.0342 20.0973 77.8442 19.8363 77.4642 19.657C77.0842 19.4777 76.4624 19.2763 75.5988 19.0528C74.859 18.886 74.1313 18.6692 73.4208 18.4039C72.8557 18.1863 72.3502 17.8375 71.946 17.3862C71.5362 16.9317 71.3314 16.3314 71.3314 15.5854C71.3314 14.5419 71.7074 13.6918 72.4594 13.0352C73.2115 12.3786 74.2874 12.0505 75.6874 12.051C76.7916 12.0436 77.8883 12.2328 78.9264 12.6098C79.1215 12.6601 79.2919 12.7791 79.4064 12.9451C79.5135 13.0952 79.572 13.2747 79.5738 13.4592C79.5749 13.5758 79.5527 13.6914 79.5086 13.7994C79.4646 13.9073 79.3995 14.0054 79.3171 14.0878C79.2357 14.1748 79.1369 14.2437 79.0272 14.2899C78.9174 14.3361 78.7992 14.3586 78.6802 14.3561C78.582 14.3527 78.4846 14.3377 78.39 14.3113C77.5661 14.0493 76.7073 13.9137 75.8429 13.909C75.0388 13.909 74.4095 14.0543 73.9551 14.3449C73.5008 14.6355 73.2736 15.0119 73.2736 15.4744C73.2736 15.9219 73.4829 16.2499 73.9014 16.4585C74.32 16.6672 74.9679 16.8683 75.845 17.0621C76.5724 17.2389 77.2885 17.4593 77.9895 17.7221C78.5395 17.9379 79.027 18.2877 79.4078 18.7399C79.8022 19.2023 79.9996 19.8211 80.0001 20.5965C80.0001 21.5511 79.6241 22.3416 78.872 22.9679C78.12 23.5942 77.0589 23.9074 75.6888 23.9074C74.1977 23.9107 72.8415 23.5768 71.6202 22.9057Z" fill="#292929"/>
<g id="Group 121">
<path id="Vector_7" d="M45.0177 22.4394C42.9311 20.4466 41.4898 17.3892 41.6573 14.6811C41.7968 12.4194 42.5111 10.8393 44.7191 9.33126C47.338 7.54519 50.9608 7.72471 53.1527 8.77246C55.7186 9.99275 56.7483 11.665 56.5579 13.3044C56.3416 15.1694 53.353 14.5554 51.9277 17.5589C50.7578 20.0247 53.1409 23.6639 51.5922 24.493C50.0434 25.3221 47.6108 24.7787 45.0177 22.4394Z" fill="#FF5F21"/>
<path id="Vector_8" d="M47.3398 23.4442C45.1723 21.6679 43.5176 18.7677 43.4213 16.0561C43.3411 13.7915 43.8699 12.1445 45.8232 10.4296C48.1393 8.3935 51.594 8.21678 53.7713 9.03752C56.3204 9.99796 57.454 11.5598 57.4282 13.2104C57.3982 15.0866 54.5052 14.7715 53.4329 17.9015C52.5546 20.4706 55.1582 23.8563 53.7671 24.8349C52.376 25.8135 50.0201 25.5152 47.3398 23.4442Z" fill="#292929"/>
<path id="Vector_9" d="M50.4209 7.14569C52.3917 7.14569 53.9893 5.54608 53.9893 3.57285C53.9893 1.59962 52.3917 0 50.4209 0C48.4502 0 46.8525 1.59962 46.8525 3.57285C46.8525 5.54608 48.4502 7.14569 50.4209 7.14569Z" fill="#292929"/>
</g>
</g>
</g>
</svg>
