<svg class="header-logo" fill="currentColor" viewBox="0 0 77 40" height="40" width="77" xmlns="http://www.w3.org/2000/svg">
    <path d="M0 0.877482V18.4271C0 18.6598 0.0896368 18.883 0.249191 19.0476C0.408746 19.2121 0.625148 19.3046 0.850792 19.3046H25.0984C25.2676 19.3046 25.4299 19.3739 25.5496 19.4973C25.6692 19.6208 25.7365 19.7881 25.7365 19.9627C25.7365 20.1372 25.6692 20.3046 25.5496 20.428C25.4299 20.5515 25.2676 20.6208 25.0984 20.6208H0.850792C0.625148 20.6208 0.408746 20.7132 0.249191 20.8778C0.0896368 21.0424 0 21.2656 0 21.4983V38.8285C0 39.0613 0.0896368 39.2844 0.249191 39.449C0.408746 39.6136 0.625148 39.706 0.850792 39.706H37.4349C37.6605 39.706 37.8769 39.6136 38.0365 39.449C38.196 39.2844 38.2857 39.0613 38.2857 38.8285V19.8881C38.2857 19.7723 38.2636 19.6577 38.2205 19.5507C38.1775 19.4438 38.1143 19.3467 38.0347 19.2651L19.6065 0.258857C19.5274 0.176739 19.4332 0.111589 19.3296 0.0671615C19.2259 0.0227343 19.1147 -9.11999e-05 19.0024 2.73851e-07H0.850792C0.625148 2.73851e-07 0.408746 0.0924492 0.249191 0.257009C0.0896368 0.421568 0 0.644759 0 0.877482Z"></path>
    <path d="M38.2857 19.1642V0.877482C38.2857 0.644759 38.3753 0.421568 38.5348 0.257009C38.6944 0.0924492 38.9108 2.73851e-07 39.1364 2.73851e-07H57.2881C57.4004 -9.11999e-05 57.5115 0.0227343 57.6152 0.0671615C57.7189 0.111589 57.813 0.176739 57.8922 0.258857L76.3203 19.2651C76.3999 19.3467 76.4631 19.4438 76.5062 19.5507C76.5493 19.6577 76.5714 19.7723 76.5713 19.8881V38.8285C76.5713 39.0613 76.4817 39.2844 76.3221 39.449C76.1626 39.6136 75.9462 39.706 75.7205 39.706H58.1559C57.9874 39.7059 57.8205 39.6713 57.665 39.6043C57.5095 39.5372 57.3684 39.4391 57.2498 39.3155L38.5324 19.7784C38.3752 19.615 38.2866 19.3944 38.2857 19.1642Z"></path>
    <path d="M41.2514 39.7052H40.6644V37.3883H39.8493V36.8988H42.0777V37.3883H41.2514V39.7052Z"></path>
    <path d="M43.1544 36.8988L43.8293 38.9014L44.5023 36.8988H45.2706V39.7052H44.6818V38.9785L44.7392 37.6464L44.0275 39.7052H43.6274L42.9162 37.644L42.975 38.9785V39.7052H42.3861V36.8988H43.1544Z"></path>
    <path d="M75.7205 8.20056e-06H69.9139C69.8029 -0.000679515 69.696 0.0434061 69.6161 0.122856C69.5762 0.163642 69.5446 0.212167 69.523 0.265632C69.5014 0.319097 69.4902 0.376442 69.4902 0.434361C69.4902 0.49228 69.5014 0.549626 69.523 0.603091C69.5446 0.656555 69.5762 0.70508 69.6161 0.745867L75.8396 7.32697C75.8795 7.36896 75.9272 7.40224 75.9798 7.42485C76.0324 7.44746 76.0889 7.45894 76.1459 7.4586C76.2587 7.4586 76.3669 7.41237 76.4467 7.33009C76.5265 7.24781 76.5713 7.13622 76.5713 7.01986V0.877489C76.5713 0.644767 76.4817 0.421576 76.3221 0.257016C76.1626 0.0924568 75.9462 8.20056e-06 75.7205 8.20056e-06Z"></path>
</svg>