<?xml version="1.0" encoding="UTF-8"?>
<svg xmlns="http://www.w3.org/2000/svg" width="190" height="50" viewBox="0 0 190 50" fill="none">
  <path d="M4.83152 49.987H1.01552C0.850194 49.9886 0.68703 49.9494 0.540462 49.8729C0.393895 49.7964 0.268444 49.6849 0.175209 49.5484C0.0819741 49.4118 0.0238307 49.2544 0.00592026 49.09C-0.0119902 48.9257 0.0108864 48.7594 0.0725249 48.606L6.88852 29.436C6.95175 29.2827 6.97584 29.116 6.95861 28.951C6.94139 28.786 6.88339 28.6279 6.78985 28.4909C6.69631 28.354 6.57016 28.2424 6.42277 28.1663C6.27538 28.0902 6.11137 28.052 5.94552 28.055H3.32452C3.1592 28.0566 2.99603 28.0174 2.84946 27.9409C2.70289 27.8644 2.57745 27.7529 2.48421 27.6164C2.39098 27.4798 2.33283 27.3224 2.31492 27.158C2.29701 26.9937 2.31988 26.8274 2.38152 26.674L3.76952 22.774C3.8533 22.5385 4.00692 22.334 4.2099 22.1881C4.41288 22.0421 4.65555 21.9615 4.90553 21.957H8.70552C8.9555 21.9526 9.19817 21.872 9.40115 21.726C9.60412 21.58 9.75775 21.3756 9.84152 21.14L17.0525 0.829024C17.1363 0.593459 17.2899 0.389047 17.4929 0.243069C17.6959 0.0970909 17.9385 0.0164902 18.1885 0.0120239L36.8245 0.0120239C41.5395 0.0120239 44.0115 3.85102 42.3335 8.56502L38.4505 19.487C36.7725 24.202 31.5755 28.04 26.8505 28.04H14.3155C14.0655 28.0445 13.8229 28.1251 13.6199 28.2711C13.4169 28.417 13.2633 28.6215 13.1795 28.857L5.96052 49.163C5.87675 49.3986 5.72312 49.603 5.52015 49.749C5.31717 49.895 5.0745 49.9756 4.82452 49.98L4.83152 49.987ZM16.1315 20.571C16.0683 20.7244 16.0442 20.8911 16.0614 21.056C16.0787 21.221 16.1367 21.3791 16.2302 21.5161C16.3237 21.6531 16.4499 21.7647 16.5973 21.8408C16.7447 21.9169 16.9087 21.9551 17.0745 21.952H29.0285C29.7605 21.9018 30.4629 21.6439 31.0535 21.2085C31.644 20.7732 32.0981 20.1784 32.3625 19.494L36.2455 8.57302C36.3858 8.30937 36.453 8.01305 36.4404 7.71469C36.4278 7.41632 36.3358 7.12674 36.1738 6.87586C36.0118 6.62498 35.7858 6.42191 35.519 6.28763C35.2523 6.15334 34.9545 6.09272 34.6565 6.11202H22.1155C21.8655 6.11649 21.6229 6.19709 21.4199 6.34307C21.2169 6.48905 21.0633 6.69346 20.9795 6.92902L16.1325 20.578L16.1315 20.571Z" fill="white"></path>
  <path d="M90.9796 49.17C90.8958 49.4056 90.7422 49.61 90.5392 49.756C90.3362 49.9019 90.0935 49.9825 89.8436 49.987H71.2126C66.4976 49.987 64.0256 46.148 65.6966 41.434L70.5526 27.765C72.2306 23.05 77.4276 19.212 82.1526 19.212H94.6926C94.9425 19.2075 95.1852 19.1269 95.3882 18.981C95.5912 18.835 95.7448 18.6306 95.8286 18.395L102.065 0.829012C102.148 0.593447 102.302 0.389035 102.505 0.243057C102.708 0.0970788 102.951 0.0164781 103.201 0.0120119H107.013C107.178 0.00894392 107.342 0.0471805 107.49 0.123278C107.637 0.199374 107.763 0.310941 107.857 0.447929C107.95 0.584916 108.008 0.743021 108.026 0.908002C108.043 1.07298 108.019 1.23966 107.956 1.39301L102.113 17.824C102.049 17.9774 102.025 18.144 102.042 18.309C102.06 18.474 102.118 18.6321 102.211 18.7691C102.305 18.9061 102.431 19.0176 102.578 19.0937C102.726 19.1698 102.89 19.2081 103.056 19.205H105.677C105.842 19.2034 106.005 19.2427 106.152 19.3192C106.298 19.3957 106.424 19.5071 106.517 19.6437C106.61 19.7802 106.668 19.9376 106.686 20.102C106.704 20.2664 106.681 20.4326 106.62 20.586L105.232 24.486C105.148 24.7216 104.994 24.926 104.791 25.072C104.588 25.2179 104.346 25.2985 104.096 25.303H100.296C100.046 25.3075 99.8029 25.3881 99.5999 25.5341C99.397 25.68 99.2433 25.8844 99.1596 26.12L90.9596 49.173L90.9796 49.17ZM79.9796 25.3C79.2476 25.3502 78.5451 25.6081 77.9546 26.0435C77.3641 26.4789 76.91 27.0736 76.6456 27.758L71.7896 41.427C71.6501 41.6906 71.5834 41.9866 71.5964 42.2845C71.6094 42.5824 71.7016 42.8714 71.8635 43.1219C72.0254 43.3723 72.2511 43.575 72.5174 43.7091C72.7837 43.8433 73.081 43.904 73.3786 43.885H85.9186C86.1685 43.8805 86.4112 43.7999 86.6142 43.654C86.8172 43.508 86.9708 43.3036 87.0546 43.068L92.8826 26.682C92.9458 26.5287 92.9699 26.362 92.9527 26.197C92.9354 26.032 92.8774 25.8739 92.7839 25.7369C92.6904 25.5999 92.5642 25.4884 92.4168 25.4123C92.2694 25.3362 92.1054 25.2979 91.9396 25.301H79.9916L79.9796 25.3Z" fill="white"></path>
  <path d="M126.633 49.17C126.549 49.4056 126.395 49.61 126.192 49.756C125.989 49.9019 125.746 49.9825 125.497 49.987H106.861C102.146 49.987 99.6735 46.148 101.345 41.434L106.201 27.765C107.879 23.05 113.076 19.212 117.801 19.212H130.341C130.59 19.2075 130.833 19.1269 131.036 18.981C131.239 18.835 131.393 18.6306 131.477 18.395L137.718 0.829008C137.801 0.593443 137.955 0.389031 138.158 0.243053C138.361 0.0970749 138.604 0.0164742 138.854 0.012008H142.67C142.835 0.0104427 142.998 0.0496499 143.145 0.126161C143.291 0.202672 143.417 0.314127 143.51 0.450668C143.603 0.587208 143.661 0.744622 143.679 0.908985C143.697 1.07335 143.674 1.23959 143.613 1.39301L137.77 17.824C137.706 17.9774 137.682 18.144 137.699 18.309C137.717 18.474 137.775 18.6321 137.868 18.7691C137.962 18.9061 138.088 19.0176 138.235 19.0937C138.383 19.1698 138.547 19.2081 138.713 19.205H141.334C141.499 19.2034 141.662 19.2427 141.809 19.3192C141.955 19.3957 142.081 19.5071 142.174 19.6437C142.267 19.7802 142.325 19.9376 142.343 20.102C142.361 20.2663 142.338 20.4326 142.277 20.586L140.889 24.486C140.805 24.7216 140.651 24.926 140.448 25.072C140.245 25.2179 140.002 25.2985 139.753 25.303H135.953C135.703 25.3075 135.46 25.3881 135.257 25.5341C135.054 25.68 134.9 25.8844 134.817 26.12L126.617 49.173L126.633 49.17ZM115.633 25.3C114.901 25.3502 114.198 25.6081 113.608 26.0435C113.017 26.4789 112.563 27.0736 112.299 27.758L107.446 41.427C107.306 41.6906 107.239 41.9866 107.252 42.2845C107.265 42.5824 107.358 42.8714 107.519 43.1218C107.681 43.3723 107.907 43.575 108.173 43.7091C108.44 43.8433 108.737 43.904 109.035 43.885H121.575C121.824 43.8805 122.067 43.7999 122.27 43.654C122.473 43.508 122.627 43.3036 122.711 43.068L128.546 26.681C128.609 26.5277 128.633 26.361 128.616 26.196C128.598 26.031 128.54 25.8729 128.447 25.7359C128.353 25.5989 128.227 25.4874 128.08 25.4113C127.932 25.3352 127.768 25.2969 127.603 25.3H115.646H115.633Z" fill="white"></path>
  <path d="M58.0664 49.17C57.9827 49.4056 57.829 49.61 57.6261 49.756C57.4231 49.902 57.1804 49.9826 56.9304 49.987H38.2204C33.5424 49.987 31.0924 46.178 32.7554 41.508L37.6784 27.661C39.3344 23.006 44.4644 19.219 49.1274 19.219H60.2714C64.9264 19.219 67.3714 23.006 65.7134 27.661L62.9364 35.461C62.8527 35.6966 62.699 35.901 62.4961 36.047C62.2931 36.193 62.0504 36.2736 61.8004 36.278H41.5464C41.2965 36.2825 41.0538 36.3631 40.8508 36.5091C40.6478 36.655 40.4942 36.8595 40.4104 37.095L38.8434 41.513C38.7085 41.7688 38.6439 42.0558 38.6563 42.3447C38.6687 42.6335 38.7576 42.914 38.914 43.1572C39.0703 43.4004 39.2885 43.5978 39.5462 43.729C39.8039 43.8602 40.0918 43.9206 40.3804 43.904H58.4964C58.6618 43.9025 58.8249 43.9417 58.9715 44.0182C59.1181 44.0947 59.2435 44.2061 59.3368 44.3427C59.43 44.4792 59.4881 44.6366 59.5061 44.801C59.524 44.9654 59.5011 45.1316 59.4394 45.285L58.0514 49.185L58.0664 49.17ZM44.3084 30.178H57.8804C58.1304 30.1736 58.3731 30.093 58.5761 29.947C58.779 29.801 58.9327 29.5966 59.0164 29.361L59.6254 27.653C59.7583 27.4011 59.8219 27.1184 59.8095 26.8338C59.7972 26.5493 59.7095 26.2731 59.5554 26.0336C59.4012 25.7941 59.1862 25.5999 58.9323 25.4708C58.6784 25.3417 58.3948 25.2824 58.1104 25.299H46.9664C46.2662 25.3464 45.5942 25.5933 45.0298 26.0104C44.4654 26.4276 44.0322 26.9975 43.7814 27.653L43.3734 28.796C43.3102 28.9494 43.2861 29.1161 43.3034 29.281C43.3206 29.446 43.3786 29.6041 43.4721 29.7411C43.5657 29.8781 43.6918 29.9897 43.8392 30.0658C43.9866 30.1419 44.1506 30.1801 44.3164 30.177L44.3084 30.178Z" fill="white"></path>
  <path d="M181.507 49.096C181.424 49.3316 181.27 49.536 181.067 49.682C180.864 49.828 180.621 49.9086 180.372 49.913H161.661C156.984 49.913 154.533 46.104 156.197 41.434L161.118 27.587C162.774 22.932 167.903 19.145 172.566 19.145H183.71C188.365 19.145 190.81 22.932 189.152 27.587L186.376 35.387C186.292 35.6226 186.138 35.827 185.935 35.973C185.732 36.119 185.489 36.1996 185.239 36.204H164.988C164.738 36.2085 164.495 36.2891 164.292 36.4351C164.089 36.581 163.935 36.7855 163.851 37.021L162.285 41.439C162.15 41.6948 162.085 41.9818 162.097 42.2706C162.11 42.5595 162.199 42.84 162.355 43.0832C162.511 43.3264 162.73 43.5238 162.987 43.655C163.245 43.7862 163.533 43.8466 163.821 43.83H181.937C182.103 43.8285 182.266 43.8677 182.413 43.9442C182.559 44.0207 182.685 44.1321 182.778 44.2687C182.871 44.4052 182.929 44.5626 182.947 44.727C182.965 44.8914 182.942 45.0576 182.881 45.211L181.493 49.111L181.507 49.096ZM167.75 30.104H181.317C181.567 30.0996 181.81 30.019 182.013 29.873C182.216 29.727 182.37 29.5226 182.454 29.287L183.062 27.579C183.195 27.3271 183.259 27.0444 183.247 26.7598C183.234 26.4753 183.147 26.1991 182.992 25.9596C182.838 25.7201 182.623 25.5259 182.369 25.3968C182.115 25.2677 181.832 25.2084 181.548 25.225H170.407C169.707 25.2712 169.034 25.517 168.469 25.9335C167.903 26.3499 167.469 26.9196 167.217 27.575L166.809 28.718C166.746 28.8714 166.722 29.038 166.739 29.203C166.757 29.368 166.815 29.5261 166.908 29.6631C167.002 29.8001 167.128 29.9117 167.275 29.9878C167.423 30.0639 167.587 30.1021 167.752 30.099L167.75 30.104Z" fill="white"></path>
  <path d="M148.594 49.096C148.511 49.3316 148.357 49.536 148.154 49.682C147.951 49.8279 147.708 49.9085 147.458 49.913H145.179C140.516 49.913 138.066 46.119 139.729 41.456L154.17 0.829012C154.254 0.593447 154.408 0.389035 154.611 0.243057C154.814 0.0970788 155.056 0.0164781 155.306 0.0120119H159.122C159.288 0.00894392 159.452 0.0471805 159.6 0.123278C159.747 0.199374 159.873 0.310941 159.967 0.447929C160.06 0.584916 160.118 0.743021 160.136 0.908002C160.153 1.07298 160.129 1.23966 160.065 1.39301L145.825 41.449C145.692 41.7019 145.628 41.9857 145.641 42.2713C145.653 42.5569 145.742 42.834 145.897 43.0743C146.051 43.3146 146.267 43.5093 146.522 43.6386C146.777 43.7679 147.062 43.8271 147.347 43.81H149.03C149.196 43.8084 149.359 43.8477 149.506 43.9242C149.652 44.0007 149.778 44.1121 149.871 44.2487C149.964 44.3852 150.022 44.5426 150.04 44.707C150.058 44.8714 150.035 45.0376 149.973 45.191L148.585 49.091L148.594 49.096Z" fill="white"></path>
</svg>
